<svg width="68" height="66" viewBox="0 0 68 66" fill="none" xmlns="http://www.w3.org/2000/svg">
<path fill-rule="evenodd" clip-rule="evenodd" d="M34.337 0.0755615C52.777 0.0755615 67.726 14.7745 67.726 32.9111C67.726 51.051 52.7765 65.7548 34.337 65.7548C15.8989 65.7548 0.956299 51.0524 0.956299 32.9111C0.956299 14.7731 15.8984 0.0755615 34.337 0.0755615ZM34.337 4.13569C18.1777 4.13569 5.08349 17.0156 5.08349 32.9111C5.08349 48.8102 18.1785 61.6947 34.337 61.6947C50.4973 61.6947 63.5988 48.8085 63.5988 32.9111C63.5988 17.0173 50.4981 4.13569 34.337 4.13569ZM47.93 19.6226L29.8795 41.8203L22.3616 32.5745C21.6497 31.6989 20.3511 31.5569 19.4611 32.2572C18.5711 32.9576 18.4268 34.2351 19.1387 35.1106L28.268 46.3382C29.0941 47.3542 30.6648 47.3542 31.4909 46.3382L51.1528 22.1589C51.8648 21.2834 51.7205 20.0059 50.8305 19.3055C49.9405 18.6051 48.6419 18.7471 47.93 19.6226Z" fill="black"/>
</svg>
