<svg width="32" height="32" viewBox="0 0 32 32" fill="none" xmlns="http://www.w3.org/2000/svg">
<path fill-rule="evenodd" clip-rule="evenodd" d="M1.89756 31.3044C1.5097 31.6923 0.880843 31.6923 0.492979 31.3044C0.105115 30.9165 0.105115 30.2877 0.492979 29.8998L30.1019 0.290898C30.4898 -0.0969661 31.1186 -0.0969661 31.5065 0.290898C31.8944 0.678762 31.8944 1.30761 31.5065 1.69548L1.89756 31.3044ZM11.648 17.5668C11.8549 18.0748 11.6108 18.6544 11.1028 18.8613C10.5948 19.0682 10.0152 18.8241 9.80834 18.3161C7.58315 12.8529 13.0452 7.37642 18.5186 9.60587C19.0266 9.81279 19.2707 10.3923 19.0638 10.9003C18.8569 11.4083 18.2773 11.6524 17.7693 11.4455C13.9259 9.87998 10.0854 13.7306 11.648 17.5668ZM7.13441 22.928C7.46882 22.4932 7.38743 21.8696 6.95262 21.5352C5.00846 20.04 3.3568 18.0819 2.11546 15.7976C6.18142 8.29946 14.1389 5.08082 21.3054 7.92157C21.8153 8.1237 22.3925 7.87418 22.5947 7.36426C22.7968 6.85434 22.5473 6.27711 22.0374 6.07497C13.7464 2.78847 4.54777 6.64054 0.108389 15.3468C-0.0361902 15.6303 -0.0361262 15.9659 0.108561 16.2494C1.50546 18.9864 3.4337 21.3348 5.74165 23.1098C6.17645 23.4442 6.80001 23.3628 7.13441 22.928ZM25.0474 10.0601C24.6126 9.72568 24.5312 9.10212 24.8656 8.66732C25.2 8.23251 25.8235 8.15112 26.2584 8.48553C28.5677 10.2616 30.4968 12.6107 31.8916 15.3462C32.0361 15.6297 32.0361 15.9651 31.8916 16.2486C27.4522 24.9548 18.2536 28.8068 9.96264 25.5203C9.45272 25.3182 9.2032 24.741 9.40533 24.231C9.60746 23.7211 10.1847 23.4716 10.6946 23.6737C17.8611 26.5145 25.8187 23.2958 29.8846 15.7976C28.645 13.5148 26.9927 11.5562 25.0474 10.0601ZM12.9366 20.6952C12.7297 21.2033 12.9739 21.7828 13.4819 21.9896C18.958 24.2192 24.4155 18.7412 22.1921 13.2795C21.9853 12.7714 21.4058 12.5273 20.8978 12.7341C20.3897 12.9409 20.1455 13.5204 20.3524 14.0284C21.9138 17.864 18.0765 21.7156 14.231 20.1499C13.7229 19.9431 13.1434 20.1872 12.9366 20.6952Z" fill="black"/>
</svg>
