<svg width="34" height="34" viewBox="0 0 34 34" fill="none" xmlns="http://www.w3.org/2000/svg">
<path fill-rule="evenodd" clip-rule="evenodd" d="M28.4826 28.1436C34.7064 21.7341 34.5534 11.493 28.1426 5.2679C21.7325 -0.956532 11.4951 -0.80607 5.27067 5.60406C-0.954858 12.0153 -0.805921 22.2546 5.60404 28.4789C12.0147 34.7038 22.2577 34.5542 28.4826 28.1436ZM6.70551 6.99734C12.1605 1.37965 21.1317 1.2478 26.7494 6.70275C32.3678 12.1585 32.5019 21.1334 27.0478 26.7503C21.5924 32.3684 12.6155 32.4995 6.99732 27.044C1.3799 21.5894 1.24938 12.6162 6.70551 6.99734ZM22.2884 9.86492C22.6732 9.4687 23.3063 9.4594 23.7025 9.84414C24.0987 10.2289 24.108 10.862 23.7233 11.2582L18.2894 16.8542L23.8852 22.2879C24.2814 22.6726 24.2907 23.3057 23.906 23.7019C23.5212 24.0982 22.8881 24.1075 22.4919 23.7227L16.8961 18.289L11.4624 23.8848C11.0777 24.281 10.4446 24.2904 10.0484 23.9056C9.65215 23.5209 9.64284 22.8878 10.0276 22.4915L15.4613 16.8958L9.86529 11.4619C9.46907 11.0771 9.45977 10.444 9.84451 10.0478C10.2293 9.65159 10.8623 9.64229 11.2586 10.027L16.8546 15.4609L22.2884 9.86492Z" fill="black"/>
</svg>
