<svg width="37" height="38" viewBox="0 0 37 38" fill="none" xmlns="http://www.w3.org/2000/svg">
<path fill-rule="evenodd" clip-rule="evenodd" d="M36.0788 19.6431C37.2345 18.3762 37.0768 16.3893 35.887 15.1356L20.4519 1.10004C19.4165 0.0474005 17.7347 0.0581083 16.5616 1.04698L1.12792 15.0759C-0.122204 16.3886 -0.280558 18.3762 0.87512 19.6431C1.3799 20.2662 2.1008 20.448 3.00012 20.3683V34.9121C3.00012 36.2075 4.11111 37.3781 5.34052 37.3781H14.5511C15.1765 37.3781 15.6836 36.8439 15.6836 36.1849V23.3775H21.2703V36.1849C21.2703 36.8439 21.7773 37.3781 22.4028 37.3781H31.6134C32.9665 37.3781 33.9538 36.2433 33.9538 34.9121C33.9538 34.9121 34.0059 20.3736 34.0319 20.3759C34.8531 20.448 35.574 20.2662 36.0788 19.6431ZM31.6134 34.9917H23.5353V22.1842C23.5353 21.5252 23.0282 20.991 22.4028 20.991H14.5512C13.9257 20.991 13.4187 21.5252 13.4187 22.1842V34.9917H5.34055C5.36201 34.9917 5.26506 34.8895 5.26506 34.9121V18.8432C5.26506 17.9917 4.44298 17.4142 3.69705 17.7417C3.6333 17.7697 3.49905 17.821 3.32661 17.8735C3.11379 17.9381 2.90853 17.9824 2.73398 17.9977C2.71597 17.9993 2.69947 18.0006 2.68447 18.0018C2.55787 18.0119 2.53705 18.0135 2.60101 18.0978L2.51747 17.9994C2.26147 17.7297 2.29925 17.2122 2.66847 16.8232L18.0088 2.88222C18.3004 2.63742 18.7085 2.63742 18.9452 2.88222L34.3465 16.8829C34.6547 17.2122 34.6925 17.7297 34.4365 17.9994L34.353 18.0978C34.4169 18.0135 34.3961 18.0119 34.2695 18.0018C34.2545 18.0006 34.238 17.9993 34.22 17.9977C34.0454 17.9824 33.8402 17.9381 33.6273 17.8735C33.4549 17.821 33.3207 17.7697 33.2569 17.7417C32.511 17.4142 31.6889 17.9917 31.6889 18.8432V34.9121C31.6889 34.9694 31.6695 34.9917 31.6134 34.9917Z" fill="black"/>
<mask id="mask0" mask-type="alpha" maskUnits="userSpaceOnUse" x="0" y="0" width="37" height="38">
<path fill-rule="evenodd" clip-rule="evenodd" d="M36.0788 19.6431C37.2345 18.3762 37.0768 16.3893 35.887 15.1356L20.4519 1.10004C19.4165 0.0474005 17.7347 0.0581083 16.5616 1.04698L1.12792 15.0759C-0.122204 16.3886 -0.280558 18.3762 0.87512 19.6431C1.3799 20.2662 2.1008 20.448 3.00012 20.3683V34.9121C3.00012 36.2075 4.11111 37.3781 5.34052 37.3781H14.5511C15.1765 37.3781 15.6836 36.8439 15.6836 36.1849V23.3775H21.2703V36.1849C21.2703 36.8439 21.7773 37.3781 22.4028 37.3781H31.6134C32.9665 37.3781 33.9538 36.2433 33.9538 34.9121C33.9538 34.9121 34.0059 20.3736 34.0319 20.3759C34.8531 20.448 35.574 20.2662 36.0788 19.6431ZM31.6134 34.9917H23.5353V22.1842C23.5353 21.5252 23.0282 20.991 22.4028 20.991H14.5512C13.9257 20.991 13.4187 21.5252 13.4187 22.1842V34.9917H5.34055C5.36201 34.9917 5.26506 34.8895 5.26506 34.9121V18.8432C5.26506 17.9917 4.44298 17.4142 3.69705 17.7417C3.6333 17.7697 3.49905 17.821 3.32661 17.8735C3.11379 17.9381 2.90853 17.9824 2.73398 17.9977C2.71597 17.9993 2.69947 18.0006 2.68447 18.0018C2.55787 18.0119 2.53705 18.0135 2.60101 18.0978L2.51747 17.9994C2.26147 17.7297 2.29925 17.2122 2.66847 16.8232L18.0088 2.88222C18.3004 2.63742 18.7085 2.63742 18.9452 2.88222L34.3465 16.8829C34.6547 17.2122 34.6925 17.7297 34.4365 17.9994L34.353 18.0978C34.4169 18.0135 34.3961 18.0119 34.2695 18.0018C34.2545 18.0006 34.238 17.9993 34.22 17.9977C34.0454 17.9824 33.8402 17.9381 33.6273 17.8735C33.4549 17.821 33.3207 17.7697 33.2569 17.7417C32.511 17.4142 31.6889 17.9917 31.6889 18.8432V34.9121C31.6889 34.9694 31.6695 34.9917 31.6134 34.9917Z" fill="white"/>
</mask>
<g mask="url(#mask0)">
<rect width="147.219" height="155.121" transform="matrix(-1 0 0 1 92.0862 -57.9218)" fill="#130DFF"/>
<rect width="147.219" height="155.121" transform="matrix(-1 0 0 1 92.0862 -57.9218)" fill="#130DFF"/>
</g>
</svg>
