<svg width="30" height="27" viewBox="0 0 30 27" fill="none" xmlns="http://www.w3.org/2000/svg">
<path d="M18.1891 5.11797L4.18001 17.6083C4.08387 18.8279 4.52886 18.9506 5.48066 18.9914L19.4897 6.50111L18.1891 5.11797Z" fill="#130DFF" stroke="#130DFF"/>
<path d="M22.1891 9.11797L8.18001 21.6083C8.08387 22.8279 8.52886 22.9506 9.48065 22.9914L23.4897 10.5011L22.1891 9.11797Z" fill="#130DFF" stroke="#130DFF"/>
<path d="M25.5776 9.1691L19.8724 3.25484L22.011 1.51831C25.5154 2.65829 26.5549 4.07941 27.6942 7.21815L25.5776 9.1691Z" fill="#130DFF" stroke="#130DFF"/>
<path d="M0.683005 25.4243L2.52212 18.5182C2.83975 19.8011 3.39111 20.1206 4.57671 20.4739C4.68306 21.68 5.19665 22.0678 6.63131 22.4296C6.59472 23.5142 7.07701 23.8242 8.2053 24.218L0.683005 25.4243Z" fill="#130DFF" stroke="#130DFF"/>
</svg>
