<svg width="84" height="96" viewBox="0 0 84 96" fill="none" xmlns="http://www.w3.org/2000/svg">
<path d="M17.3998 79.6389V2C17.3998 1.44772 17.8475 1 18.3998 1H71.5709C71.8832 1 72.1775 1.14583 72.3666 1.39425L82.7954 15.0927C82.928 15.2668 82.9998 15.4796 82.9998 15.6985V79.6389C82.9998 80.1912 82.5521 80.6389 81.9998 80.6389H76.1664H18.3998C17.8475 80.6389 17.3998 80.1912 17.3998 79.6389Z" stroke="#979797" stroke-width="2"/>
<path d="M69.3334 2.30566V16.6668H80.2667" stroke="#979797" stroke-width="2"/>
<path d="M18.7665 7.52783H10.1998C9.64754 7.52783 9.19983 7.97555 9.19983 8.52783V86.1667C9.19983 86.719 9.64754 87.1667 10.1998 87.1667H77.8998C78.4521 87.1667 78.8998 86.719 78.8998 86.1667V79.3334" stroke="#979797" stroke-width="2"/>
<path d="M10.5667 15.3613H2C1.44771 15.3613 1 15.809 1 16.3613V94.0002C1 94.5525 1.44772 95.0002 2 95.0002H69.7C70.2523 95.0002 70.7 94.5525 70.7 94.0002V87.1669" stroke="#979797" stroke-width="2"/>
</svg>
