<svg width="34" height="34" viewBox="0 0 34 34" fill="none" xmlns="http://www.w3.org/2000/svg">
<path fill-rule="evenodd" clip-rule="evenodd" d="M30.5012 26.0533L28.3126 23.2051C28.7093 22.4676 29.0313 21.6917 29.2733 20.8866L32.8322 20.4208C33.2789 20.3623 33.6314 20.0123 33.693 19.5659C33.9062 18.0209 33.9084 16.545 33.6929 14.9875C33.6312 14.5413 33.2788 14.1915 32.8322 14.133L29.2733 13.6672C29.0313 12.8621 28.7093 12.0862 28.3126 11.3486L30.5012 8.50045C30.7755 8.14353 30.7775 7.64733 30.5061 7.28821C29.5815 6.06481 28.4923 4.97518 27.2689 4.04952C26.9098 3.77784 26.4135 3.77962 26.0564 4.05388L23.2087 6.24098C22.4706 5.84313 21.6938 5.52028 20.8881 5.27791L20.4223 1.71757C20.3638 1.27098 20.0141 0.918569 19.5679 0.856771C18.0156 0.641742 16.5392 0.641742 14.9895 0.855283C14.5431 0.916799 14.193 1.26931 14.1345 1.71614L13.6687 5.27461C12.861 5.51687 12.0833 5.83932 11.3443 6.23706L8.49484 4.04835C8.13781 3.77411 7.64154 3.77225 7.28246 4.04382C6.08043 4.95294 4.96906 6.05902 4.04552 7.27932C3.77372 7.63845 3.77554 8.13498 4.04997 8.49211L6.23792 11.3394C5.83827 12.0799 5.51461 12.8592 5.27184 13.6686L1.71346 14.1344C1.26678 14.1928 0.914341 14.5428 0.852664 14.989C0.645721 16.4863 0.641974 18.038 0.852636 19.5645C0.914229 20.0109 1.2667 20.3609 1.71346 20.4194L5.27184 20.8851C5.51461 21.6945 5.83827 22.4739 6.23792 23.2144L4.04997 26.0616C3.77561 26.4187 3.77371 26.9151 4.04532 27.2742C4.95232 28.4734 6.05805 29.5829 7.28206 30.5096C7.64122 30.7816 8.13786 30.7798 8.49505 30.5052L11.344 28.3158C12.0827 28.714 12.8606 29.0367 13.6687 29.2791L14.1345 32.8363C14.193 33.2827 14.5426 33.6351 14.9886 33.697C16.5374 33.9119 18.0141 33.9122 19.5679 33.697C20.0141 33.6352 20.3638 33.2828 20.4223 32.8362L20.8881 29.2758C21.6943 29.0333 22.4712 28.7102 23.209 28.3118L26.0562 30.4997C26.4133 30.7741 26.9098 30.776 27.2689 30.5042C28.4901 29.5802 29.5797 28.4899 30.5057 27.266C30.7775 26.9069 30.7756 26.4104 30.5012 26.0533ZM26.3206 23.8952L28.4384 26.6513C27.8955 27.297 27.2984 27.8946 26.654 28.4368L23.8981 26.3191C23.5693 26.0664 23.1187 26.0429 22.7654 26.2599C21.8337 26.8323 20.8182 27.2554 19.7489 27.513C19.3464 27.61 19.0452 27.945 18.9915 28.3555L18.5406 31.8017C17.6917 31.8771 16.8631 31.8771 16.0161 31.8018L15.5652 28.3582C15.5114 27.9475 15.2101 27.6125 14.8074 27.5157C13.7344 27.2578 12.719 26.8358 11.7867 26.2638C11.4334 26.0471 10.983 26.0707 10.6544 26.3233L7.89747 28.4421C7.25145 27.8977 6.65042 27.2962 6.11313 26.6591L8.23061 23.9036C8.48323 23.5748 8.5068 23.1243 8.28986 22.771C7.71606 21.8365 7.29304 20.8199 7.03545 19.7468C6.93875 19.3439 6.60365 19.0424 6.19286 18.9886L2.7498 18.538C2.67775 17.6952 2.67853 16.8484 2.74972 16.0158L6.19286 15.5651C6.60365 15.5113 6.93875 15.2098 7.03545 14.807C7.29304 13.7339 7.71606 12.7172 8.28986 11.7827C8.5068 11.4294 8.48323 10.9789 8.23061 10.6502L6.11321 7.89471C6.65659 7.25042 7.25883 6.64952 7.89748 6.11141L10.6546 8.22923C10.9829 8.48143 11.4327 8.50523 11.7858 8.28909C12.7194 7.71764 13.7352 7.29574 14.8074 7.03806C15.2101 6.94128 15.5115 6.60623 15.5652 6.19553L16.0161 2.7512C16.8635 2.67646 17.6922 2.67663 18.5406 2.75203L18.9915 6.19827C19.0452 6.60879 19.3464 6.94376 19.7489 7.04072C20.8175 7.29814 21.8333 7.7211 22.7662 8.29294C23.1194 8.5094 23.5694 8.48574 23.8979 8.23344L26.654 6.11673C27.2993 6.65956 27.8963 7.25687 28.4387 7.90219L26.3206 10.6585C26.0684 10.9867 26.0444 11.4364 26.2604 11.7896C26.831 12.7226 27.2528 13.7373 27.5104 14.8064C27.6073 15.2089 27.9423 15.51 28.3528 15.5637L31.7975 16.0146C31.8727 16.8647 31.8722 17.6932 31.7973 18.5392L28.3528 18.99C27.9423 19.0438 27.6073 19.3449 27.5104 19.7474C27.2528 20.8164 26.831 21.8311 26.2604 22.7642C26.0444 23.1173 26.0684 23.567 26.3206 23.8952ZM22.0437 17.277C22.0437 14.6418 19.9077 12.5059 17.2725 12.5059C14.6382 12.5059 12.5014 14.6423 12.5014 17.277C12.5014 19.9114 14.6379 22.0468 17.2725 22.0468C19.9081 22.0468 22.0437 19.9119 22.0437 17.277ZM17.2725 24.0468C21.0125 24.0468 24.0437 21.0166 24.0437 17.277C24.0437 13.5373 21.0123 10.5059 17.2725 10.5059C13.5337 10.5059 10.5014 13.5377 10.5014 17.277C10.5014 21.0161 13.5335 24.0468 17.2725 24.0468Z" fill="black"/>
</svg>
