<svg width="27" height="33" viewBox="0 0 27 33" fill="none" xmlns="http://www.w3.org/2000/svg">
<path fill-rule="evenodd" clip-rule="evenodd" d="M13.26 0.459961C8.84172 0.459961 5.26001 4.04168 5.26001 8.45996C5.26001 13.0331 8.95717 17.46 13.26 17.46C17.5629 17.46 21.26 13.0331 21.26 8.45996C21.26 4.04168 17.6783 0.459961 13.26 0.459961ZM7.26001 8.45996C7.26001 12.0003 10.1495 15.46 13.26 15.46C16.3706 15.46 19.26 12.0003 19.26 8.45996C19.26 5.14625 16.5737 2.45996 13.26 2.45996C9.94629 2.45996 7.26001 5.14625 7.26001 8.45996ZM26.26 29.46C26.26 23.9367 21.7833 19.46 16.26 19.46H10.26C4.73672 19.46 0.26001 23.9367 0.26001 29.46V30.1098L0.853871 30.3738C1.01947 30.4474 1.3207 30.567 1.7518 30.717C2.45561 30.9618 3.27758 31.2053 4.21191 31.4318C6.86492 32.075 9.89676 32.46 13.26 32.46C16.6233 32.46 19.6551 32.075 22.3081 31.4318C23.2424 31.2053 24.0644 30.9618 24.7682 30.717C25.1993 30.567 25.5006 30.4474 25.6661 30.3738L26.26 30.1098V29.46ZM16.26 21.46C20.4516 21.46 23.8896 24.6825 24.232 28.7855C24.1933 28.7992 24.153 28.8134 24.1112 28.828C23.4673 29.0519 22.7073 29.2771 21.8369 29.4881C19.3337 30.095 16.4593 30.46 13.26 30.46C10.0608 30.46 7.18635 30.095 4.68311 29.4881C3.81276 29.2771 3.05269 29.0519 2.40884 28.828C2.367 28.8134 2.32672 28.7992 2.28803 28.7855C2.63043 24.6825 6.06845 21.46 10.26 21.46H16.26Z" fill="#BFBFBF"/>
</svg>
