<svg width="30" height="34" viewBox="0 0 30 34" fill="none" xmlns="http://www.w3.org/2000/svg">
<path fill-rule="evenodd" clip-rule="evenodd" d="M29.903 22.7996L29.1056 23.5483L29.7964 24.3962C21.7298 30.9678 8.35727 30.9652 0.293997 24.3962L0.984872 23.5482L0.1875 22.7994C2.97858 19.8272 4.93558 15.5732 4.71758 10.08C4.55127 5.89032 6.50839 3.018 9.80557 1.343C13.0845 -0.322832 17.006 -0.322832 20.2849 1.34302C23.582 3.01828 25.539 5.89054 25.3727 10.0801C25.1548 15.5732 27.1118 19.827 29.903 22.7996ZM23.1869 9.99335C22.9643 15.607 24.7835 20.0899 27.5091 23.3898C20.4813 28.3862 9.60661 28.3844 2.58136 23.3897C5.30685 20.0901 7.12615 15.607 6.90336 9.99323C6.77347 6.72117 8.21598 4.60411 10.7964 3.29326C13.4526 1.94375 16.6378 1.94375 19.2941 3.29324C21.8744 4.6043 23.3168 6.72135 23.1869 9.99335ZM12.9732 30.3946H10.7857C10.7857 32.4416 12.7446 33.9891 15.0447 33.9891C17.3455 33.9891 19.3046 32.4417 19.3046 30.3946H17.1171C17.1171 31.1053 16.2355 31.8016 15.0447 31.8016C13.8546 31.8016 12.9732 31.1053 12.9732 30.3946Z" fill="black"/>
</svg>
