<svg width="34" height="33" viewBox="0 0 34 33" fill="none" xmlns="http://www.w3.org/2000/svg">
<path fill-rule="evenodd" clip-rule="evenodd" d="M0.666748 1.66672C0.666748 1.31254 0.842717 1.02021 1.09727 0.8446C1.16718 0.796084 1.24358 0.756255 1.32489 0.726676C1.45084 0.680428 1.58647 0.658954 1.72387 0.666718H21.5334C22.0857 0.666718 22.5334 1.11443 22.5334 1.66672V11.0001C22.5334 11.5523 22.0857 12.0001 21.5334 12.0001C20.9811 12.0001 20.5334 11.5523 20.5334 11.0001V2.66672H5.24828L11.6514 6.54469C11.9506 6.7259 12.1334 7.05026 12.1334 7.40005V24.6667H20.5334V19.0001C20.5334 18.4478 20.9811 18.0001 21.5334 18.0001C22.0857 18.0001 22.5334 18.4478 22.5334 19.0001V25.6667C22.5334 26.219 22.0857 26.6667 21.5334 26.6667H12.1334V31.8001C12.1334 32.5792 11.2818 33.059 10.6154 32.6554L1.14871 26.9221C0.849517 26.7409 0.666748 26.4165 0.666748 26.0667V1.66672ZM2.66675 25.5033V3.44145L10.1334 7.96352V30.0253L2.66675 25.5033ZM33.0654 14.9486C33.0663 14.9656 33.0667 14.9828 33.0667 15.0001C33.0667 15.2706 32.9593 15.5161 32.7847 15.6961C32.7807 15.7003 32.7767 15.7044 32.7726 15.7084L28.3739 20.1072C27.9833 20.4977 27.3502 20.4977 26.9596 20.1072C26.5691 19.7166 26.5691 19.0835 26.9596 18.6929L29.6525 16.0001H16.3334C15.7811 16.0001 15.3334 15.5523 15.3334 15.0001C15.3334 14.4478 15.7811 14.0001 16.3334 14.0001H29.6525L26.9596 11.3072C26.5691 10.9166 26.5691 10.2835 26.9596 9.89295C27.3502 9.50242 27.9833 9.50242 28.3739 9.89295L32.7723 14.2914C32.7773 14.2963 32.7821 14.3013 32.7869 14.3063C32.8756 14.3982 32.9432 14.503 32.9897 14.6145C33.0331 14.7181 33.0595 14.8307 33.0654 14.9486Z" fill="black"/>
</svg>
