<svg width="30" height="41" viewBox="0 0 30 41" fill="none" xmlns="http://www.w3.org/2000/svg">
<path fill-rule="evenodd" clip-rule="evenodd" d="M0.0727539 34.8683V2.63275C0.0727539 1.25831 1.12941 0.114258 2.4455 0.114258H21.6876C22.3442 0.114258 22.7043 0.337643 23.1947 0.844607L28.4137 6.24502C28.8748 6.72218 29.1224 7.2334 29.1224 7.91046V35.2064C29.1224 35.5114 29.0105 35.8047 28.8098 36.0255L25.1266 40.0788C24.6776 40.5729 23.9248 40.5694 23.48 40.0712L19.4434 35.5494L15.4073 40.0711C14.9598 40.5725 14.2013 40.5725 13.7537 40.0712L9.71721 35.5495L5.82586 39.9093C5.37836 40.4107 4.6198 40.4107 4.17227 39.9094L0.507428 35.8037C0.242806 35.5863 0.0727539 35.2481 0.0727539 34.8683ZM20.5552 2.52625V9.09795H26.8575V34.7312L24.314 37.5302L20.2701 33.0002C19.8226 32.4989 19.0641 32.4989 18.6166 33.0003L14.5804 37.5219L10.5439 33.0002C10.0963 32.4989 9.3378 32.4989 8.89032 33.0003L4.99901 37.3601L2.33765 34.3786V2.63275C2.33765 2.55328 2.39678 2.48926 2.4455 2.48926C2.4455 2.48926 16.5498 2.50743 20.5552 2.52625ZM22.8201 3.79291V6.72295H25.6541C24.8051 5.84555 23.6719 4.67376 22.8201 3.79291ZM22.5338 28.2012C23.1592 28.2012 23.6662 28.7329 23.6662 29.3887C23.6662 30.0446 23.1592 30.5762 22.5338 30.5762H6.71226C6.08682 30.5762 5.57981 30.0446 5.57981 29.3887C5.57981 28.7329 6.08682 28.2012 6.71226 28.2012H22.5338ZM23.6662 24.4322C23.6662 23.7764 23.1592 23.2447 22.5338 23.2447H6.71226C6.08682 23.2447 5.57981 23.7764 5.57981 24.4322C5.57981 25.088 6.08682 25.6197 6.71226 25.6197H22.5338C23.1592 25.6197 23.6662 25.088 23.6662 24.4322ZM22.5338 18.2882C23.1592 18.2882 23.6662 18.8198 23.6662 19.4757C23.6662 20.1315 23.1592 20.6632 22.5338 20.6632H6.71226C6.08682 20.6632 5.57981 20.1315 5.57981 19.4757C5.57981 18.8198 6.08682 18.2882 6.71226 18.2882H22.5338ZM16.6344 14.5192C16.6344 13.8633 16.1274 13.3317 15.502 13.3317H6.71226C6.08682 13.3317 5.57981 13.8633 5.57981 14.5192C5.57981 15.175 6.08682 15.7067 6.71226 15.7067H15.502C16.1274 15.7067 16.6344 15.175 16.6344 14.5192Z" fill="white"/>
</svg>
