<svg width="33" height="32" viewBox="0 0 33 32" fill="none" xmlns="http://www.w3.org/2000/svg">
<path fill-rule="evenodd" clip-rule="evenodd" d="M0.0664062 12.6667C0.0664062 19.6254 5.70762 25.2667 12.6664 25.2667C15.2387 25.2667 17.631 24.4958 19.6248 23.1726L27.5593 31.1071C28.6165 32.1643 30.183 32.1643 31.2402 31.1071C32.2974 30.0499 32.2974 28.4834 31.2402 27.4262L23.2777 19.4637C24.5364 17.5027 25.2664 15.1699 25.2664 12.6667C25.2664 5.70786 19.6252 0.0666504 12.6664 0.0666504C5.70762 0.0666504 0.0664062 5.70786 0.0664062 12.6667ZM22.0553 21.0697C21.787 21.3693 21.5046 21.6559 21.2092 21.9285L28.9735 29.6929C29.2497 29.969 29.5498 29.969 29.826 29.6929C30.1021 29.4167 30.1021 29.1166 29.826 28.8404L22.0553 21.0697ZM12.6664 23.2667C18.5206 23.2667 23.2664 18.5209 23.2664 12.6667C23.2664 6.81243 18.5206 2.06665 12.6664 2.06665C6.81219 2.06665 2.06641 6.81243 2.06641 12.6667C2.06641 18.5209 6.81219 23.2667 12.6664 23.2667ZM14.4647 4.72537C14.4971 4.17404 14.0765 3.70081 13.5251 3.66838C10.9173 3.51498 8.38913 4.46305 6.49263 6.35954C4.59614 8.25604 3.64807 10.7842 3.80147 13.392C3.8339 13.9434 4.30713 14.364 4.85846 14.3316C5.40979 14.2992 5.83045 13.8259 5.79801 13.2746C5.67797 11.2338 6.41667 9.26393 7.90685 7.77376C9.39702 6.28358 11.3669 5.54488 13.4077 5.66492C13.959 5.69736 14.4322 5.2767 14.4647 4.72537Z" fill="black"/>
</svg>
