<svg width="32" height="32" viewBox="0 0 32 32" fill="none" xmlns="http://www.w3.org/2000/svg">
<path fill-rule="evenodd" clip-rule="evenodd" d="M0 16C0 24.8366 7.16344 32 16 32C24.8366 32 32 24.8366 32 16C32 7.16344 24.8366 0 16 0C7.16344 0 0 7.16344 0 16ZM29.9255 16C29.9255 23.6909 23.6909 29.9255 16 29.9255C8.30914 29.9255 2.07447 23.6909 2.07447 16C2.07447 8.30914 8.30914 2.07447 16 2.07447C23.6909 2.07447 29.9255 8.30914 29.9255 16ZM17.0372 7.9944V18.2128H14.9628V7.9944H17.0372ZM17.0372 23.9168V22.9024H14.9628V23.9168H17.0372Z" fill="black"/>
</svg>
